HIERARCHY
ROOT Hips
{
	OFFSET 0.000000 83.214638 0.000000
	CHANNELS 6 Xposition Yposition Zposition Xrotation Yrotation Zrotation
	JOINT Pelvis
	{
		OFFSET 0.000000 0.000000 0.000000
		CHANNELS 3 Xrotation Yrotation Zrotation
		JOINT LeftUpLeg
		{
			OFFSET 8.479700 -4.795502 -0.379100
			CHANNELS 3 Xrotation Yrotation Zrotation
			JOINT LeftLeg
			{
				OFFSET 0.024144 -32.555107 0.112900
				CHANNELS 3 Xrotation Yrotation Zrotation
				JOINT LeftFoot
				{
					OFFSET -0.024144 -32.638630 -3.012600
					CHANNELS 3 Xrotation Yrotation Zrotation
					JOINT LeftToeBase
					{
						OFFSET 0.970200 -13.225400 11.864200
						CHANNELS 3 Xrotation Yrotation Zrotation
						End Site
						{
							OFFSET 0.000000 12.319262 0.000000
						}
					}
					JOINT LFootTongue
					{
						OFFSET 1.142400 -1.059800 6.665200
						CHANNELS 3 Xrotation Yrotation Zrotation
						End Site
						{
							OFFSET 0.000000 12.319262 0.000000
						}
					}
				}
				JOINT LeftPantLeg
				{
					OFFSET 0.918482 -16.533964 -2.284700
					CHANNELS 3 Xrotation Yrotation Zrotation
					End Site
					{
						OFFSET 0.350399 24.744368 0.000000
					}
				}
			}
		}
		JOINT RightUpLeg
		{
			OFFSET -8.479700 -4.795502 -0.379100
			CHANNELS 3 Xrotation Yrotation Zrotation
			JOINT RightLeg
			{
				OFFSET -0.023144 -32.555092 0.112900
				CHANNELS 3 Xrotation Yrotation Zrotation
				JOINT RightFoot
				{
					OFFSET 0.023144 -32.638641 -3.012700
					CHANNELS 3 Xrotation Yrotation Zrotation
					JOINT RightToeBase
					{
						OFFSET -0.970200 -13.225400 11.864200
						CHANNELS 3 Xrotation Yrotation Zrotation
						End Site
						{
							OFFSET 0.000000 12.319244 0.000000
						}
					}
					JOINT RFootTongue
					{
						OFFSET -1.142200 -1.059800 6.665200
						CHANNELS 3 Xrotation Yrotation Zrotation
						End Site
						{
							OFFSET 0.000000 12.319243 0.000000
						}
					}
				}
				JOINT RightPantLeg
				{
					OFFSET -0.919482 -16.533978 -2.284800
					CHANNELS 3 Xrotation Yrotation Zrotation
					End Site
					{
						OFFSET -0.350400 24.744419 0.000000
					}
				}
			}
		}
	}
	JOINT Spine
	{
		OFFSET 0.000000 7.722000 1.166200
		CHANNELS 3 Xrotation Yrotation Zrotation
		JOINT Spine1
		{
			OFFSET 0.000000 12.024101 0.248800
			CHANNELS 3 Xrotation Yrotation Zrotation
			JOINT Spine2
			{
				OFFSET 0.000000 11.502998 -0.491200
				CHANNELS 3 Xrotation Yrotation Zrotation
				JOINT Neck
				{
					OFFSET 0.000000 18.430702 -3.123100
					CHANNELS 3 Xrotation Yrotation Zrotation
					JOINT Head
					{
						OFFSET 0.000000 9.051102 1.034000
						CHANNELS 3 Xrotation Yrotation Zrotation
						JOINT HairB
						{
							OFFSET 0.208400 24.786102 24.822300
							CHANNELS 3 Xrotation Yrotation Zrotation
							End Site
							{
								OFFSET 0.000000 32.263779 0.000000
							}
						}
						JOINT HairA
						{
							OFFSET -7.081100 24.428299 23.196600
							CHANNELS 3 Xrotation Yrotation Zrotation
							End Site
							{
								OFFSET 0.000000 32.263779 0.000000
							}
						}
						JOINT Hat
						{
							OFFSET 16.728800 15.048294 -15.439601
							CHANNELS 3 Xrotation Yrotation Zrotation
							End Site
							{
								OFFSET 0.000000 32.263779 0.000000
							}
						}
					}
				}
				JOINT LeftShoulder
				{
					OFFSET 6.197800 13.665199 -4.064700
					CHANNELS 3 Xrotation Yrotation Zrotation
					JOINT LeftArm
					{
						OFFSET 7.778100 -0.187103 -1.709300
						CHANNELS 3 Xrotation Yrotation Zrotation
						JOINT LeftForeArm
						{
							OFFSET 22.049376 0.000000 0.000000
							CHANNELS 3 Xrotation Yrotation Zrotation
							JOINT LeftHand
							{
								OFFSET 23.009392 0.000000 0.000000
								CHANNELS 3 Xrotation Yrotation Zrotation
								JOINT LeftHandThumb1
								{
									OFFSET 3.507191 -2.063065 3.133727
									CHANNELS 3 Xrotation Yrotation Zrotation
									JOINT LeftHandThumb2
									{
										OFFSET 3.101337 -1.790558 1.790558
										CHANNELS 3 Xrotation Yrotation Zrotation
										JOINT LeftHandThumb3
										{
											OFFSET 3.058640 -1.765907 1.765906
											CHANNELS 3 Xrotation Yrotation Zrotation
											End Site
											{
												OFFSET -0.415260 3.926476 -0.049563
											}
										}
									}
								}
								JOINT LeftHandIndex1
								{
									OFFSET 11.334419 -0.901459 3.706815
									CHANNELS 3 Xrotation Yrotation Zrotation
									JOINT LeftHandIndex2
									{
										OFFSET 3.283112 0.000000 0.000000
										CHANNELS 3 Xrotation Yrotation Zrotation
										JOINT LeftHandIndex3
										{
											OFFSET 3.323853 0.000000 0.000000
											CHANNELS 3 Xrotation Yrotation Zrotation
											End Site
											{
												OFFSET -1.135597 3.097809 0.402452
											}
										}
									}
								}
								JOINT LeftHandMiddle1
								{
									OFFSET 11.335861 0.000000 0.000000
									CHANNELS 3 Xrotation Yrotation Zrotation
									JOINT LeftHandMiddle2
									{
										OFFSET 3.410492 0.000000 0.000000
										CHANNELS 3 Xrotation Yrotation Zrotation
										JOINT LeftHandMiddle3
										{
											OFFSET 3.312172 0.000000 0.000000
											CHANNELS 3 Xrotation Yrotation Zrotation
											End Site
											{
												OFFSET -1.150200 3.080154 0.400270
											}
										}
									}
								}
								JOINT LeftHandRing1
								{
									OFFSET 11.514786 -0.013176 -3.003090
									CHANNELS 3 Xrotation Yrotation Zrotation
									JOINT LeftHandRing2
									{
										OFFSET 3.053307 0.000000 0.000000
										CHANNELS 3 Xrotation Yrotation Zrotation
										JOINT LeftHandRing3
										{
											OFFSET 3.295807 0.000000 0.000000
											CHANNELS 3 Xrotation Yrotation Zrotation
											End Site
											{
												OFFSET -1.281006 3.013344 0.375733
											}
										}
									}
								}
								JOINT LeftHandPinky1
								{
									OFFSET 10.518692 -0.960396 -5.730441
									CHANNELS 3 Xrotation Yrotation Zrotation
									JOINT LeftHandPinky2
									{
										OFFSET 2.861649 0.000000 0.000000
										CHANNELS 3 Xrotation Yrotation Zrotation
										JOINT LeftHandPinky3
										{
											OFFSET 2.863380 0.000000 0.000000
											CHANNELS 3 Xrotation Yrotation Zrotation
											End Site
											{
												OFFSET -0.843597 2.711159 0.369971
											}
										}
									}
								}
							}
							JOINT LSleeve
							{
								OFFSET 6.676277 -0.344902 -1.011730
								CHANNELS 3 Xrotation Yrotation Zrotation
								End Site
								{
									OFFSET 0.000000 14.885353 0.000000
								}
							}
						}
					}
				}
				JOINT RightShoulder
				{
					OFFSET -6.197800 13.665199 -4.064700
					CHANNELS 3 Xrotation Yrotation Zrotation
					JOINT RightArm
					{
						OFFSET -7.778100 -0.187103 -1.709300
						CHANNELS 3 Xrotation Yrotation Zrotation
						JOINT RightForeArm
						{
							OFFSET -22.049376 0.000000 0.000000
							CHANNELS 3 Xrotation Yrotation Zrotation
							JOINT RightHand
							{
								OFFSET -23.009392 0.000000 0.000000
								CHANNELS 3 Xrotation Yrotation Zrotation
								JOINT RightHandThumb1
								{
									OFFSET -3.507191 -2.063065 3.133727
									CHANNELS 3 Xrotation Yrotation Zrotation
									JOINT RightHandThumb2
									{
										OFFSET -3.101337 -1.790558 1.790558
										CHANNELS 3 Xrotation Yrotation Zrotation
										JOINT RightHandThumb3
										{
											OFFSET -3.058640 -1.765907 1.765906
											CHANNELS 3 Xrotation Yrotation Zrotation
											End Site
											{
												OFFSET 0.415260 3.926476 -0.049563
											}
										}
									}
								}
								JOINT RightHandIndex1
								{
									OFFSET -11.334419 -0.901459 3.706815
									CHANNELS 3 Xrotation Yrotation Zrotation
									JOINT RightHandIndex2
									{
										OFFSET -3.283112 0.000000 0.000000
										CHANNELS 3 Xrotation Yrotation Zrotation
										JOINT RightHandIndex3
										{
											OFFSET -3.323853 0.000000 0.000000
											CHANNELS 3 Xrotation Yrotation Zrotation
											End Site
											{
												OFFSET 1.135597 3.097809 0.402452
											}
										}
									}
								}
								JOINT RightHandMiddle1
								{
									OFFSET -11.335861 0.000000 0.000000
									CHANNELS 3 Xrotation Yrotation Zrotation
									JOINT RightHandMiddle2
									{
										OFFSET -3.410492 0.000000 0.000000
										CHANNELS 3 Xrotation Yrotation Zrotation
										JOINT RightHandMiddle3
										{
											OFFSET -3.312172 0.000000 0.000000
											CHANNELS 3 Xrotation Yrotation Zrotation
											End Site
											{
												OFFSET 1.150200 3.080154 0.400270
											}
										}
									}
								}
								JOINT RightHandRing1
								{
									OFFSET -11.514786 -0.013176 -3.003090
									CHANNELS 3 Xrotation Yrotation Zrotation
									JOINT RightHandRing2
									{
										OFFSET -3.053307 0.000000 0.000000
										CHANNELS 3 Xrotation Yrotation Zrotation
										JOINT RightHandRing3
										{
											OFFSET -3.295807 0.000000 0.000000
											CHANNELS 3 Xrotation Yrotation Zrotation
											End Site
											{
												OFFSET 1.281006 3.013344 0.375733
											}
										}
									}
								}
								JOINT RightHandPinky1
								{
									OFFSET -10.518692 -0.960396 -5.730441
									CHANNELS 3 Xrotation Yrotation Zrotation
									JOINT RightHandPinky2
									{
										OFFSET -2.861649 0.000000 0.000000
										CHANNELS 3 Xrotation Yrotation Zrotation
										JOINT RightHandPinky3
										{
											OFFSET -2.863380 0.000000 0.000000
											CHANNELS 3 Xrotation Yrotation Zrotation
											End Site
											{
												OFFSET 0.843597 2.711159 0.369971
											}
										}
									}
								}
							}
							JOINT RSleeve
							{
								OFFSET -6.676277 -0.344902 -1.011730
								CHANNELS 3 Xrotation Yrotation Zrotation
								End Site
								{
									OFFSET 0.000000 14.885353 0.000000
								}
							}
						}
					}
				}
				JOINT Backpack
				{
					OFFSET 0.000000 -2.471497 36.677502
					CHANNELS 3 Xrotation Yrotation Zrotation
					End Site
					{
						OFFSET 0.000000 20.427315 0.000000
					}
				}
				JOINT Hood
				{
					OFFSET 0.000000 18.754097 -10.431000
					CHANNELS 3 Xrotation Yrotation Zrotation
					JOINT Hood1
					{
						OFFSET 0.000000 -5.011002 -7.685901
						CHANNELS 3 Xrotation Yrotation Zrotation
						End Site
						{
							OFFSET 0.000000 9.175140 0.000000
						}
					}
				}
				JOINT LHoodieString
				{
					OFFSET 5.250500 16.397697 3.089900
					CHANNELS 3 Xrotation Yrotation Zrotation
					JOINT LHoodieString1
					{
						OFFSET 0.257700 -6.364304 3.694600
						CHANNELS 3 Xrotation Yrotation Zrotation
						JOINT LHoodieString2
						{
							OFFSET 0.000000 -9.643799 2.679100
							CHANNELS 3 Xrotation Yrotation Zrotation
							End Site
							{
								OFFSET 0.000000 10.009018 0.000000
							}
						}
					}
				}
				JOINT RHoodieString
				{
					OFFSET -5.250500 16.397697 3.089900
					CHANNELS 3 Xrotation Yrotation Zrotation
					JOINT RHoodieString1
					{
						OFFSET -0.257700 -6.364304 3.694600
						CHANNELS 3 Xrotation Yrotation Zrotation
						JOINT RHoodieString2
						{
							OFFSET 0.000000 -9.643799 2.679100
							CHANNELS 3 Xrotation Yrotation Zrotation
							End Site
							{
								OFFSET 0.000000 10.009018 0.000000
							}
						}
					}
				}
			}
			JOINT LBackpack_Strap
			{
				OFFSET 15.223200 -7.719803 -6.610900
				CHANNELS 3 Xrotation Yrotation Zrotation
				End Site
				{
					OFFSET 0.000000 16.040596 0.000000
				}
			}
			JOINT RBackpack_Strap
			{
				OFFSET -15.223000 -7.719803 -6.610900
				CHANNELS 3 Xrotation Yrotation Zrotation
				End Site
				{
					OFFSET 0.000000 16.040596 0.000000
				}
			}
		}
	}
	JOINT BoyFacialAnim_Joint
	{
		OFFSET 1.000000 -82.208099 -1.550900
		CHANNELS 3 Xrotation Yrotation Zrotation
		End Site
		{
			OFFSET 0.000000 30.012791 0.000000
		}
	}
}
MOTION
Frames: 5
Frame Time: 0.033333
-0.119637 81.673798 0.106017 -7.265930 -21.638275 -1.124402 -0.000000 0.000000 0.000000 -12.357225 3.178914 3.738592 17.401408 9.672122 3.473148 3.763072 -0.065000 -1.757379 -0.000000 0.000000 -0.000000 -0.000000 0.000000 -0.000000 0.000000 -0.000000 -0.000000 2.921710 -15.008924 -7.838165 15.432862 -9.946533 -4.091198 -5.206763 -26.909000 11.000862 0.000000 0.000001 0.000000 0.000000 0.000001 0.000000 -0.000000 -0.000001 0.000000 2.936122 0.848255 0.223537 5.706025 1.655166 0.049923 5.701145 1.665291 0.113342 -6.855310 4.695234 1.098323 7.356408 8.015703 -2.856186 0.000000 -0.000000 0.000000 0.000000 -0.000000 0.000000 0.000000 -0.000000 0.000000 0.760461 9.844166 -11.801413 13.694518 -50.697653 -41.050499 -0.000006 -82.047326 0.000006 -20.630742 -16.152305 58.324802 12.212227 6.036512 -8.712877 5.975224 12.647531 1.348330 -0.000002 0.000000 -0.000000 1.489945 6.219135 -46.026264 4.918537 5.776529 -80.813432 -0.000001 0.000000 -0.000004 3.032981 7.465346 -65.121926 3.601270 5.402612 -67.351075 0.000001 -0.000001 -0.000002 3.883768 7.836701 -69.918065 3.412216 5.320149 -65.328150 -0.000002 -0.000001 -0.000000 3.189717 7.690042 -75.471439 2.279014 4.637167 -52.326431 0.000001 -0.000000 0.000003 -0.000000 -0.000000 -0.000001 -3.002015 12.533798 10.513510 -5.652881 59.881757 44.536655 0.000111 78.543863 -0.000125 -46.367450 6.501185 -40.237478 32.130600 38.912056 9.291976 20.823901 -37.088849 -0.292977 0.000000 0.000001 -0.000000 2.212415 -6.210706 57.584929 1.992937 -3.821201 55.075510 -0.000001 -0.000000 0.000002 3.961943 -6.871840 80.768018 3.253776 -4.441128 72.443404 0.000001 0.000000 0.000001 5.086155 -6.916485 94.647919 2.177017 -3.943071 57.794028 -0.000001 0.000000 0.000006 4.021092 -6.881312 82.190965 2.455249 -4.104798 61.757348 0.000000 -0.000000 0.000002 0.000002 -0.000001 -0.000004 0.000001 0.000000 -0.000000 0.000001 0.000000 -0.000000 0.000001 0.000000 -0.000000 0.000001 0.000000 -0.000000 0.000001 0.000000 -0.000000 -0.000000 0.000001 0.000000 0.000001 0.000000 -0.000000 0.000001 0.000000 -0.000000 -0.000000 0.000001 0.000000 0.000000 0.000002 0.000000 0.000000 0.000002 0.000000 -0.000000 0.000000 0.000000 
-0.105645 81.647621 0.100514 -7.243557 -21.614011 -1.188274 0.000000 0.000002 0.000000 -12.747569 3.096972 3.558275 18.277593 9.814562 3.718117 3.010399 0.862156 -0.450797 -0.000000 -0.000001 -0.000000 -0.000000 -0.000001 0.000000 -0.000000 0.000001 0.000000 2.872722 -15.002526 -7.773366 15.522431 -9.937750 -4.094928 -5.223398 -26.986936 11.023405 0.000000 -0.000001 0.000000 0.000000 -0.000001 0.000000 -0.000001 0.000007 -0.000000 2.931619 0.842220 0.309764 5.697912 1.645136 0.066328 5.692757 1.655756 0.129543 -6.862198 4.675601 1.089070 7.356788 7.963586 -2.840036 0.000000 -0.000000 0.000000 0.000000 -0.000000 0.000000 0.000000 -0.000000 0.000000 0.762998 9.882580 -11.809178 13.589233 -50.538759 -41.156954 -0.000190 -82.137779 -0.000193 -20.706748 -16.182721 58.143256 12.212228 6.036513 -8.712878 5.975222 12.647529 1.348330 0.000002 0.000000 -0.000000 1.489945 6.219134 -46.026268 4.918537 5.776527 -80.813425 -0.000001 -0.000000 -0.000000 3.032979 7.465346 -65.121920 3.601268 5.402610 -67.351082 0.000000 -0.000001 0.000004 3.883768 7.836702 -69.918058 3.412217 5.320149 -65.328143 -0.000000 -0.000000 0.000003 3.189718 7.690037 -75.471439 2.279017 4.637168 -52.326434 0.000000 0.000000 -0.000002 -0.000001 0.000002 0.000001 -2.998244 12.543140 10.493357 -6.061039 59.959895 44.959539 0.000026 78.438651 -0.000021 -46.213603 6.298593 -40.264764 32.130610 38.912062 9.291978 20.823910 -37.088853 -0.292978 0.000003 -0.000000 -0.000001 2.212415 -6.210706 57.584929 1.992937 -3.821203 55.075507 -0.000000 -0.000001 0.000005 3.961942 -6.871840 80.768025 3.253776 -4.441127 72.443404 0.000001 0.000001 0.000002 5.086154 -6.916486 94.647926 2.177017 -3.943069 57.794028 0.000000 0.000000 0.000000 4.021092 -6.881311 82.190965 2.455251 -4.104797 61.757348 -0.000001 0.000000 -0.000001 -0.000003 -0.000001 -0.000002 0.000000 -0.000000 0.000000 0.000000 -0.000000 0.000000 0.000000 -0.000000 0.000000 0.000000 -0.000000 0.000000 0.000000 -0.000000 -0.000000 0.000000 -0.000000 -0.000000 0.000000 -0.000000 0.000000 0.000000 -0.000000 -0.000000 0.000000 -0.000000 -0.000000 -0.000000 -0.000002 -0.000000 -0.000000 -0.000002 -0.000000 0.000000 0.000002 0.000000 
-0.080234 81.666412 0.052996 -7.184755 -21.544503 -1.147449 -0.000000 -0.000002 -0.000000 -12.631870 3.082173 3.587926 17.752533 9.802203 3.703814 3.443432 0.426469 -1.037639 -0.000000 0.000000 -0.000001 -0.000000 0.000000 -0.000000 -0.000000 -0.000001 0.000000 2.855647 -14.978779 -7.759229 15.412713 -9.943486 -4.084346 -5.210955 -27.046774 11.001607 0.000000 -0.000001 0.000000 0.000000 -0.000001 0.000000 -0.000000 -0.000003 0.000002 2.917079 0.831507 0.276373 5.668166 1.624048 0.081558 5.662959 1.634343 0.144469 -6.906016 4.679064 1.096060 7.410930 7.904265 -2.802166 -0.000001 -0.000000 -0.000000 -0.000001 -0.000000 -0.000000 -0.000001 -0.000000 -0.000000 0.762496 9.919565 -11.788191 13.387449 -50.373034 -41.354733 -0.000213 -82.168467 -0.000238 -20.795165 -16.219457 57.886564 12.212226 6.036513 -8.712877 5.975222 12.647531 1.348329 0.000001 -0.000001 0.000000 1.489943 6.219135 -46.026271 4.918537 5.776529 -80.813432 0.000000 0.000000 -0.000000 3.032981 7.465348 -65.121933 3.601268 5.402611 -67.351082 0.000001 -0.000001 0.000000 3.883768 7.836703 -69.918065 3.412215 5.320148 -65.328150 0.000000 -0.000000 -0.000000 3.189718 7.690041 -75.471439 2.279017 4.637169 -52.326434 0.000001 -0.000001 -0.000000 0.000001 0.000000 -0.000001 -2.993591 12.536100 10.471493 -6.765752 59.974559 45.757469 -0.000084 78.236252 0.000071 -45.944186 6.043552 -40.185780 32.130607 38.912056 9.291976 20.823905 -37.088846 -0.292979 0.000004 0.000001 -0.000001 2.212415 -6.210706 57.584929 1.992935 -3.821201 55.075510 -0.000000 0.000000 0.000004 3.961943 -6.871841 80.768025 3.253777 -4.441126 72.443411 0.000002 0.000000 -0.000000 5.086155 -6.916485 94.647919 2.177015 -3.943071 57.794028 0.000001 0.000002 0.000001 4.021093 -6.881311 82.190965 2.455250 -4.104796 61.757355 0.000001 -0.000002 0.000002 -0.000000 0.000001 -0.000000 -0.000000 -0.000000 -0.000000 -0.000000 -0.000000 -0.000000 -0.000000 -0.000000 -0.000000 -0.000000 -0.000000 -0.000000 -0.000000 -0.000000 -0.000001 -0.000000 -0.000002 -0.000000 -0.000000 -0.000000 -0.000000 -0.000000 -0.000000 -0.000001 -0.000000 -0.000002 -0.000000 0.000000 -0.000001 0.000000 0.000000 -0.000001 0.000000 -0.000000 -0.000002 -0.000000 
-0.046910 81.672844 0.006002 -7.126359 -21.475568 -1.127352 0.000000 0.000000 -0.000000 -12.652335 3.050761 3.560145 17.558786 9.804190 3.736686 3.591536 0.345347 -1.123026 -0.000000 -0.000000 -0.000000 -0.000000 -0.000000 0.000000 -0.000000 -0.000001 0.000001 2.816865 -14.939359 -7.709813 15.346052 -9.951392 -4.114929 -5.189418 -27.161492 10.988141 -0.000000 -0.000000 -0.000000 -0.000000 -0.000000 -0.000000 -0.000000 0.000002 -0.000001 2.907202 0.827538 0.282058 5.648704 1.618817 0.099640 5.643321 1.629070 0.162348 -6.965003 4.662783 1.127131 7.467438 7.841836 -2.822892 -0.000001 0.000000 -0.000000 -0.000001 0.000000 -0.000000 -0.000001 0.000000 -0.000000 0.760590 9.918984 -11.765210 13.271004 -50.278276 -41.373236 -0.000119 -82.255579 -0.000082 -20.995264 -16.264960 57.725678 12.212227 6.036514 -8.712876 5.975224 12.647529 1.348330 -0.000002 0.000000 -0.000001 1.489946 6.219134 -46.026268 4.918539 5.776528 -80.813432 -0.000001 -0.000001 -0.000000 3.032984 7.465346 -65.121926 3.601270 5.402612 -67.351082 0.000001 -0.000001 0.000002 3.883769 7.836700 -69.918058 3.412217 5.320149 -65.328143 -0.000001 -0.000000 -0.000000 3.189719 7.690043 -75.471439 2.279015 4.637168 -52.326434 0.000001 0.000000 0.000002 -0.000000 -0.000000 -0.000001 -3.004885 12.419885 10.553528 -7.239012 60.103076 46.197788 0.000247 78.107994 -0.000240 -45.758135 5.716390 -40.181047 32.130610 38.912059 9.291981 20.823911 -37.088853 -0.292980 0.000001 0.000001 -0.000001 2.212417 -6.210706 57.584929 1.992937 -3.821201 55.075510 -0.000001 0.000000 0.000002 3.961943 -6.871841 80.768025 3.253777 -4.441128 72.443404 0.000002 0.000002 0.000004 5.086155 -6.916485 94.647919 2.177017 -3.943069 57.794028 -0.000001 -0.000001 0.000000 4.021092 -6.881309 82.190965 2.455250 -4.104799 61.757348 0.000000 -0.000000 -0.000002 -0.000001 -0.000000 -0.000003 0.000000 -0.000001 0.000000 0.000000 -0.000001 0.000000 0.000000 -0.000001 0.000000 0.000000 -0.000001 0.000000 0.000000 -0.000001 0.000000 0.000000 0.000001 -0.000000 0.000000 -0.000001 0.000000 0.000000 -0.000001 0.000000 0.000000 0.000001 -0.000000 0.000000 -0.000001 0.000000 0.000000 -0.000001 0.000000 0.000000 0.000000 -0.000000 
-0.014710 81.677757 -0.040831 -7.044950 -21.423442 -1.098853 -0.000000 -0.000000 -0.000000 -12.715390 3.036300 3.553905 17.410518 9.803940 3.731801 3.723791 0.259930 -1.171033 0.000000 0.000000 -0.000000 0.000000 0.000000 -0.000000 0.000000 0.000000 -0.000001 2.762549 -14.901197 -7.661398 15.264788 -9.960013 -4.131587 -5.215748 -27.237526 10.926060 0.000000 -0.000000 -0.000000 0.000000 -0.000000 -0.000000 -0.000000 -0.000001 0.000000 2.894774 0.822434 0.290560 5.622672 1.609590 0.114338 5.617030 1.619880 0.177187 -6.996941 4.649405 1.159013 7.499741 7.827847 -2.860033 0.000001 -0.000000 -0.000000 0.000001 -0.000000 -0.000000 0.000001 -0.000000 -0.000000 0.755564 9.945076 -11.711588 13.259948 -50.251782 -41.245484 -0.000222 -82.390338 -0.000200 -21.268219 -16.337367 57.664965 12.212227 6.036513 -8.712878 5.975223 12.647530 1.348329 -0.000003 0.000001 -0.000000 1.489946 6.219134 -46.026275 4.918537 5.776529 -80.813432 -0.000001 0.000000 -0.000002 3.032982 7.465345 -65.121926 3.601268 5.402612 -67.351082 0.000001 -0.000000 0.000002 3.883768 7.836702 -69.918058 3.412214 5.320149 -65.328150 -0.000000 -0.000001 0.000005 3.189719 7.690040 -75.471432 2.279016 4.637167 -52.326441 0.000001 0.000000 -0.000000 0.000000 -0.000000 0.000001 -3.015188 12.339572 10.623464 -7.715313 60.216512 46.627191 0.000088 78.036216 -0.000086 -45.561074 5.352679 -40.216936 32.130603 38.912059 9.291977 20.823905 -37.088849 -0.292981 0.000002 0.000001 -0.000002 2.212415 -6.210707 57.584929 1.992938 -3.821201 55.075514 -0.000001 -0.000000 0.000004 3.961943 -6.871841 80.768025 3.253776 -4.441129 72.443404 0.000000 0.000000 0.000003 5.086155 -6.916485 94.647919 2.177017 -3.943070 57.794028 0.000000 -0.000000 0.000002 4.021092 -6.881311 82.190972 2.455251 -4.104796 61.757348 -0.000000 -0.000001 -0.000005 -0.000002 -0.000000 -0.000000 -0.000000 -0.000000 -0.000000 -0.000000 -0.000000 -0.000000 -0.000000 -0.000000 -0.000000 -0.000000 -0.000000 -0.000000 -0.000000 -0.000000 -0.000000 -0.000000 -0.000000 0.000000 -0.000000 -0.000000 -0.000000 -0.000000 -0.000000 -0.000000 -0.000000 -0.000000 0.000000 0.000000 0.000000 -0.000000 0.000000 0.000000 -0.000000 -0.000000 -0.000000 -0.000000 
